<?xml version="1.0" encoding="UTF-8" standalone="no"?>
<!-- Generator: Adobe Illustrator 19.0.0, SVG Export Plug-In . SVG Version: 6.00 Build 0)  -->

<svg
   xmlns:dc="http://purl.org/dc/elements/1.1/"
   xmlns:cc="http://creativecommons.org/ns#"
   xmlns:rdf="http://www.w3.org/1999/02/22-rdf-syntax-ns#"
   xmlns:svg="http://www.w3.org/2000/svg"
   xmlns="http://www.w3.org/2000/svg"
   xmlns:sodipodi="http://sodipodi.sourceforge.net/DTD/sodipodi-0.dtd"
   xmlns:inkscape="http://www.inkscape.org/namespaces/inkscape"
   version="1.1"
   id="Layer_1"
   x="0px"
   y="0px"
   viewBox="0 0 452.30042 490.4"
   xml:space="preserve"
   sodipodi:docname="computer.svg"
   width="452.30042"
   height="490.39999"
   inkscape:version="0.92.3 (2405546, 2018-03-11)"><metadata
   id="metadata45"><rdf:RDF><cc:Work
       rdf:about=""><dc:format>image/svg+xml</dc:format><dc:type
         rdf:resource="http://purl.org/dc/dcmitype/StillImage" /><dc:title></dc:title></cc:Work></rdf:RDF></metadata><defs
   id="defs43" /><sodipodi:namedview
   pagecolor="#ffffff"
   bordercolor="#666666"
   borderopacity="1"
   objecttolerance="10"
   gridtolerance="10"
   guidetolerance="10"
   inkscape:pageopacity="0"
   inkscape:pageshadow="2"
   inkscape:window-width="1366"
   inkscape:window-height="707"
   id="namedview41"
   showgrid="false"
   showborder="false"
   fit-margin-top="0"
   fit-margin-left="0"
   fit-margin-right="0"
   fit-margin-bottom="0"
   inkscape:zoom="0.48222314"
   inkscape:cx="226.15"
   inkscape:cy="245.7"
   inkscape:window-x="0"
   inkscape:window-y="0"
   inkscape:window-maximized="1"
   inkscape:current-layer="Layer_1" />
<g
   id="g8"
   transform="translate(-18.55)">
	<g
   id="g6">
		<path
   style="fill:#212121;fill-opacity:1;stroke:#212121;stroke-width:2;stroke-miterlimit:4;stroke-dasharray:none;stroke-opacity:1"
   d="m 430.55,85.5 h -95.6 c -5.5,0 -9.9,4.4 -9.9,9.9 0,5.5 4.4,9.9 9.9,9.9 h 95.6 c 10.8,0 19.6,8.8 19.6,19.6 v 245.8 c 0,10.8 -8.8,19.6 -19.6,19.6 H 58.95 c -10.8,0 -19.6,-8.8 -19.6,-19.6 V 124.9 c 0,-10.8 8.8,-19.6 19.6,-19.6 h 97.1 c 5.5,0 9.9,-4.4 9.9,-9.9 0,-5.5 -4.4,-9.9 -9.9,-9.9 h -97.1 c -21.7,0 -39.4,17.7 -39.4,39.4 v 245.8 c 0,21.7 17.7,39.4 39.4,39.4 h 175.9 v 59.5 h -82.2 c -5.5,0 -9.9,4.4 -9.9,9.9 0,5.5 4.4,9.9 9.9,9.9 h 184.1 c 5.5,0 9.9,-4.4 9.9,-9.9 0,-5.5 -4.4,-9.9 -9.9,-9.9 h -82.2 v -59.5 h 175.9 c 21.7,0 39.4,-17.7 39.4,-39.4 V 124.9 c 0.1,-21.7 -17.6,-39.4 -39.3,-39.4 z"
   id="path2"
   inkscape:connector-curvature="0" />
		<path
   style="fill:#f44336;fill-opacity:1"
   d="M 300.55,38.9 C 300.55,17.5 283.15,0 261.65,0 h -33.9 c -21.4,0 -38.9,17.4 -38.9,38.9 v 23.3 c 0,0.6 0.1,1.2 0.2,1.7 -0.1,0.6 -0.2,1.1 -0.2,1.7 v 193.2 c 0,2.2 0.7,4.3 2,6 l 45.9,60.3 c 1.9,2.5 4.8,3.9 7.9,3.9 3.1,0 6,-1.4 7.9,-3.9 l 45.9,-60.3 c 1.3,-1.7 2,-3.8 2,-6 V 65.3 c 0,-0.5 -0.1,-1.1 -0.2,-1.6 0.1,-0.5 0.2,-1 0.2,-1.6 V 38.9 Z m -91.8,33.2 h 26.1 v 175.4 h -26.1 z m 36,230.7 -27.1,-35.6 h 54.2 z m 36,-55.3 h -26.1 V 72.1 h 26.1 z m 0,-195.2 h -72 V 38.9 c 0,-10.5 8.6,-19.1 19.1,-19.1 h 33.9 c 10.5,0 19.1,8.6 19.1,19.1 v 13.4 c 0,0 -0.1,0 -0.1,0 z"
   id="path4"
   inkscape:connector-curvature="0" />
	</g>
</g>
<g
   id="g10"
   transform="translate(-18.55)">
</g>
<g
   id="g12"
   transform="translate(-18.55)">
</g>
<g
   id="g14"
   transform="translate(-18.55)">
</g>
<g
   id="g16"
   transform="translate(-18.55)">
</g>
<g
   id="g18"
   transform="translate(-18.55)">
</g>
<g
   id="g20"
   transform="translate(-18.55)">
</g>
<g
   id="g22"
   transform="translate(-18.55)">
</g>
<g
   id="g24"
   transform="translate(-18.55)">
</g>
<g
   id="g26"
   transform="translate(-18.55)">
</g>
<g
   id="g28"
   transform="translate(-18.55)">
</g>
<g
   id="g30"
   transform="translate(-18.55)">
</g>
<g
   id="g32"
   transform="translate(-18.55)">
</g>
<g
   id="g34"
   transform="translate(-18.55)">
</g>
<g
   id="g36"
   transform="translate(-18.55)">
</g>
<g
   id="g38"
   transform="translate(-18.55)">
</g>
</svg>