<?xml version="1.0" encoding="UTF-8" standalone="no"?>
<!-- Created with Inkscape (http://www.inkscape.org/) -->

<svg
   xmlns:serif="http://www.serif.com/"
   xmlns:dc="http://purl.org/dc/elements/1.1/"
   xmlns:cc="http://creativecommons.org/ns#"
   xmlns:rdf="http://www.w3.org/1999/02/22-rdf-syntax-ns#"
   xmlns:svg="http://www.w3.org/2000/svg"
   xmlns="http://www.w3.org/2000/svg"
   xmlns:sodipodi="http://sodipodi.sourceforge.net/DTD/sodipodi-0.dtd"
   xmlns:inkscape="http://www.inkscape.org/namespaces/inkscape"
   width="512"
   height="512"
   viewBox="0 0 135.46665 135.46666"
   version="1.1"
   id="svg8"
   inkscape:version="0.92.3 (2405546, 2018-03-11)"
   sodipodi:docname="QED_icon.svg">
  <defs
     id="defs2" />
  <sodipodi:namedview
     id="base"
     pagecolor="#ffffff"
     bordercolor="#666666"
     borderopacity="1.0"
     inkscape:pageopacity="0.0"
     inkscape:pageshadow="2"
     inkscape:zoom="0.55097743"
     inkscape:cx="420.0517"
     inkscape:cy="269.63992"
     inkscape:document-units="px"
     inkscape:current-layer="layer1"
     showgrid="false"
     inkscape:window-width="1366"
     inkscape:window-height="707"
     inkscape:window-x="0"
     inkscape:window-y="0"
     inkscape:window-maximized="1"
     showborder="false"
     fit-margin-top="0"
     fit-margin-left="0"
     fit-margin-right="0"
     fit-margin-bottom="0"
     units="px" />
  <metadata
     id="metadata5">
    <rdf:RDF>
      <cc:Work
         rdf:about="">
        <dc:format>image/svg+xml</dc:format>
        <dc:type
           rdf:resource="http://purl.org/dc/dcmitype/StillImage" />
        <dc:title></dc:title>
      </cc:Work>
    </rdf:RDF>
  </metadata>
  <g
     inkscape:label="Layer 1"
     inkscape:groupmode="layer"
     id="layer1"
     transform="translate(-257.08351,-187.72041)">
    <g
       id="g979">
      <g
         style="fill:#000000;fill-opacity:1"
         inkscape:label="Layer 1"
         id="layer1-3"
         transform="matrix(0.54186665,0,0,0.54186665,266.58682,174.86915)">
        <g
           style="clip-rule:evenodd;fill:#000000;fill-opacity:1;fill-rule:evenodd"
           id="g857"
           transform="matrix(0,-10.416667,10.416667,0,-17.538099,273.71666)">
          <path
             style="fill:#000000;fill-opacity:1"
             id="path846"
             d="M 12,0 C 2.568,0 0,2.568 0,12 0,21.432 2.551,24 12,24 21.449,24 24,21.449 24,12 24,2.551 21.432,0 12,0 Z"
             serif:id="shape 15"
             inkscape:connector-curvature="0" />
        </g>
      </g>
      <g
         transform="translate(198.46834,105.04638)"
         id="g969">
        <g
           aria-label="QED"
           style="font-style:normal;font-variant:normal;font-weight:normal;font-stretch:normal;font-size:166.65629578px;line-height:1.25;font-family:Gugi;-inkscape-font-specification:Gugi;letter-spacing:0px;word-spacing:0px;fill:#000000;fill-opacity:1;stroke:none;stroke-width:4.16640711"
           id="text823"
           transform="matrix(0.33564017,0,0,0.33564017,90.995465,106.10331)">
          <path
             d="m 12.307322,178.98247 q 4.49972,0 8.332815,-2.33319 3.833095,-2.49984 3.833095,-8.16615 L 24.139919,91.321261 q 0,-4.166408 -2.499844,-7.66619 -2.499845,-3.499782 -8.832784,-3.499782 h -27.998258 q -6.166283,0 -8.832783,3.499782 -2.499845,3.499782 -2.499845,7.66619 v 76.328579 q 0,4.33307 2.499845,7.83285 2.6665,3.49978 8.832783,3.49978 z m 1.33325,-21.99863 q 0,5.83297 -3.9997506,9.83272 -3.9997511,3.99975 -9.8327215,3.99975 -5.6663141,0 -9.6660652,-3.99975 -3.9997507,-3.99975 -3.9997507,-9.83272 0,-5.66631 3.9997507,-9.66606 3.9997511,-3.99976 9.6660652,-3.99976 5.8329704,0 9.8327215,3.99976 3.9997506,3.99975 3.9997506,9.66606 z m 36.831042,37.33101 q 1.666563,1.66656 1.666563,4.16641 0,1.33325 -0.666625,2.6665 -0.666626,1.33325 -2.166532,2.6665 -2.999814,3.16647 -5.333002,3.16647 -1.833219,0 -3.999751,-2.16653 L 28.472983,193.31491 q -6.499596,2.49985 -11.332628,2.49985 h -36.331073 q -4.333064,0 -8.99944,-1.66656 -4.49972,-1.83322 -8.832783,-4.99969 -8.99944,-6.66626 -8.99944,-20.16542 V 89.821354 q 0,-6.666252 2.333188,-11.665941 2.333188,-5.166345 6.666252,-8.332815 h -0.166657 q 4.166408,-2.833157 8.832784,-4.666376 4.833032,-1.833219 9.166096,-1.833219 h 36.331073 q 4.166407,0 8.832783,1.833219 4.666377,1.833219 8.99944,4.666376 h -0.166656 q 4.333064,3.16647 6.666252,8.332815 2.333188,4.999689 2.333188,11.665941 v 79.161736 q 0,3.99976 -1.166594,7.66619 -0.999938,3.66644 -2.833157,6.83291 z"
             style="fill:#ffffff;stroke-width:4.16640711"
             id="path825"
             inkscape:connector-curvature="0" />
          <path
             d="m 81.498327,195.81476 q -6.166283,0 -8.332814,-3.16647 -2.166532,-3.16647 -2.166532,-6.99957 V 73.322381 q 0,-3.833095 2.166532,-6.832908 2.166531,-3.16647 8.332814,-3.16647 h 57.996393 q 6.16628,0 6.49959,8.332815 0.33332,8.499471 -6.49959,8.499471 H 90.664424 v 98.827181 h 51.830106 q 6.16628,0 6.33294,8.16616 0.33331,8.66613 -6.33294,8.66613 z m 51.830113,-68.99571 q 0,5.83297 -4.16641,9.83272 -3.99975,3.99975 -9.83272,3.99975 -5.66632,0 -9.66607,-3.99975 -3.99975,-3.99975 -3.99975,-9.83272 0,-5.83297 3.99975,-9.83272 3.99975,-3.99975 9.66607,-3.99975 5.83297,0 9.83272,3.99975 4.16641,3.99975 4.16641,9.83272 z"
             style="fill:#f44336;fill-opacity:1;stroke-width:4.16640711"
             id="path827"
             inkscape:connector-curvature="0" />
          <path
             d="m 225.68467,178.98247 q 6.16628,0 8.66613,-3.49978 2.49984,-3.49978 2.49984,-7.83285 V 91.321261 q 0,-4.166408 -2.49984,-7.66619 -2.49985,-3.499782 -8.66613,-3.499782 H 186.6871 l -0.16666,108.659901 q 0,3.66644 -2.83316,5.83297 -2.83315,2.16654 -6.99956,2.16654 -9.83272,0 -9.83272,-7.99951 V 73.322381 q 0,-5.999627 2.99981,-7.999502 3.16647,-1.999876 7.49954,-1.999876 h 52.49673 q 4.33306,0 8.99944,1.833219 4.66637,1.833219 8.99944,4.666376 h -0.16666 q 4.33307,3.16647 6.66625,8.332815 2.33319,4.999689 2.33319,11.665941 v 79.161736 q 0,13.49916 -8.99944,20.16542 -4.33306,3.16647 -8.99944,4.99969 -4.49972,1.66656 -8.83278,1.66656 h -27.99826 q -2.83316,0 -4.49972,-2.33319 -1.49991,-2.33319 -1.49991,-6.16628 0,-8.33282 7.16623,-8.33282 z"
             style="fill:#f44336;fill-opacity:1;stroke-width:4.16640711"
             id="path829"
             inkscape:connector-curvature="0" />
        </g>
      </g>
    </g>
  </g>
</svg>
